<?xml version="1.0" encoding="iso-8859-1"?>
<!-- Generator: Adobe Illustrator 19.0.0, SVG Export Plug-In . SVG Version: 6.00 Build 0)  -->
<svg version="1.1" id="Capa_1" xmlns="http://www.w3.org/2000/svg" xmlns:xlink="http://www.w3.org/1999/xlink" x="0px" y="0px"
	 viewBox="0 0 470 470" style="enable-background:new 0 0 470 470;" xml:space="preserve">
<g>
	<path style="fill:#8A6F64;" d="M83.509,383.333c0.834,5.022,1.709,10.023,2.631,15h297.723c0.922-4.977,1.796-9.978,2.631-15
		H83.509z"/>
	<path style="fill:#8A6F64;" d="M74.827,313.333c0.419,5.018,0.878,10.019,1.378,15h317.593c0.5-4.981,0.959-9.982,1.378-15H74.827z
		"/>
	<path style="fill:#8A6F64;" d="M395.177,156.667c-0.419-5.018-0.878-10.019-1.378-15H76.206c-0.5,4.981-0.959,9.982-1.378,15
		H395.177z"/>
	<path style="fill:#8A6F64;" d="M386.495,86.667c-0.834-5.022-1.709-10.023-2.631-15H86.14c-0.922,4.977-1.797,9.978-2.631,15
		H386.495z"/>
	<path style="fill:#E9B264;" d="M191.323,413.333c0.955,14.124,2.03,28.084,3.209,41.666l80.94,0
		c1.179-13.575,2.253-27.535,3.209-41.667H191.323z"/>
	<path style="fill:#E9B264;" d="M187.615,343.333c0.328,8.397,0.696,16.754,1.099,25h92.576c0.404-8.27,0.772-16.627,1.099-25
		H187.615z"/>
	<path style="fill:#E9B264;" d="M178.055,242.5c4.137,0,7.49,3.332,7.512,7.461c0.084,16.151,0.316,32.378,0.673,48.372h97.518
		c0.468-20.91,0.717-42.165,0.717-63.333s-0.25-42.423-0.717-63.333h-97.518c-0.358,15.994-0.589,32.221-0.673,48.372
		c-0.021,4.129-3.375,7.461-7.499,7.461c-0.02,2.502-0.036,4.99-0.036,7.5S178.049,239.998,178.055,242.5z M224.75,259.748
		c4.411,0,8,3.589,8,8s-3.589,8-8,8s-8-3.589-8-8S220.339,259.748,224.75,259.748z"/>
	<path style="fill:#E9B264;" d="M282.389,126.667c-0.327-8.373-0.696-16.73-1.099-25h-92.576c-0.403,8.246-0.77,16.603-1.099,25
		H282.389z"/>
	<path style="fill:#E9B264;" d="M278.68,56.667c-0.956-14.131-2.03-28.091-3.209-41.667l-80.94,0
		c-1.179,13.582-2.254,27.542-3.209,41.666H278.68z"/>
	<path style="fill:#F59B45;" d="M176.289,56.667c0.948-14.116,2.017-28.072,3.188-41.666l-80.72,0.001
		c-3.592,13.68-6.815,27.58-9.7,41.665H176.289z"/>
	<path style="fill:#F59B45;" d="M172.604,126.667c0.326-8.393,0.69-16.751,1.091-25H81.157c-1.222,8.276-2.329,16.61-3.317,25
		H172.604z"/>
	<path style="fill:#F59B45;" d="M170.567,250.039c-0.021-4.142,3.318-7.517,7.461-7.539c0.021-2.502,0.004-4.99,0.004-7.5
		s0.017-4.998,0.023-7.5c-4.17-0.022-7.51-3.397-7.488-7.539c0.084-16.123,0.314-32.322,0.669-48.293H73.7
		c-1.393,20.831-2.118,41.948-2.118,63.333s0.725,42.501,2.118,63.333h97.537C170.882,282.361,170.652,266.162,170.567,250.039z
		 M104.75,215.748c-4.411,0-8-3.589-8-8s3.589-8,8-8s8,3.589,8,8S109.161,215.748,104.75,215.748z"/>
	<path style="fill:#F59B45;" d="M173.695,368.333c-0.4-8.249-0.764-16.607-1.091-25H77.84c0.988,8.39,2.095,16.724,3.317,25H173.695
		z"/>
	<path style="fill:#F59B45;" d="M179.477,454.998c-1.172-13.594-2.24-27.55-3.188-41.666H89.057
		c2.885,14.085,6.108,27.985,9.7,41.665L179.477,454.998z"/>
	<path style="fill:#F59B45;" d="M293.715,413.333c-0.948,14.124-2.017,28.079-3.189,41.667l80.72,0.001
		c3.593-13.681,6.816-27.581,9.701-41.667H293.715z"/>
	<path style="fill:#F59B45;" d="M297.4,343.333c-0.326,8.369-0.69,16.727-1.091,25h92.538c1.222-8.276,2.329-16.61,3.317-25H297.4z"
		/>
	<path style="fill:#F59B45;" d="M290.526,15.001c1.171,13.588,2.24,27.543,3.188,41.667h87.232
		c-2.885-14.086-6.108-27.986-9.701-41.667L290.526,15.001z"/>
	<path style="fill:#F59B45;" d="M296.309,101.667c0.401,8.273,0.766,16.631,1.091,25h94.764c-0.988-8.39-2.095-16.724-3.317-25
		H296.309z"/>
	<path style="fill:#F59B45;" d="M299.476,235c0,21.166-0.249,42.419-0.713,63.333h97.542c1.393-20.831,2.118-41.948,2.118-63.333
		s-0.725-42.502-2.118-63.333h-97.542C299.227,192.581,299.476,213.834,299.476,235z"/>
	<path style="fill:#34150C;" d="M411.337,298.625c1.383-20.932,2.085-42.152,2.085-63.625s-0.701-42.693-2.085-63.625
		c3.141-0.895,5.444-3.779,5.444-7.208c0-3.812-2.846-6.952-6.528-7.43c-0.424-5.166-0.889-10.314-1.398-15.442
		c3.003-0.979,5.175-3.798,5.175-7.128c0-3.886-2.955-7.082-6.742-7.462c-0.991-8.57-2.101-17.085-3.332-25.541
		c2.816-1.08,4.819-3.802,4.819-6.998c0-3.991-3.12-7.245-7.053-7.478c-0.854-5.233-1.756-10.442-2.702-15.627
		c2.675-1.146,4.549-3.801,4.549-6.895c0-4.076-3.254-7.386-7.305-7.49c-3.482-17.337-7.484-34.395-12.016-51.137
		C383.363,2.271,380.396,0,377.009,0L92.994,0.002c-3.388,0-6.354,2.271-7.239,5.541c-4.531,16.741-8.533,33.798-12.015,51.134
		c-4.052,0.104-7.306,3.414-7.306,7.49c0,3.094,1.874,5.749,4.549,6.895c-0.946,5.185-1.848,10.394-2.702,15.627
		c-3.933,0.233-7.052,3.487-7.052,7.478c0,3.196,2.002,5.917,4.818,6.998c-1.231,8.455-2.34,16.971-3.332,25.541
		c-3.785,0.381-6.74,3.576-6.74,7.462c0,3.329,2.171,6.148,5.173,7.127c-0.509,5.128-0.974,10.276-1.398,15.442
		c-3.684,0.476-6.532,3.617-6.532,7.431c0,3.43,2.304,6.315,5.448,7.209c-1.383,20.932-2.085,42.151-2.085,63.624
		s0.701,42.692,2.085,63.624c-3.144,0.893-5.448,3.779-5.448,7.209c0,3.813,2.848,6.955,6.532,7.431
		c0.424,5.166,0.889,10.313,1.398,15.442c-3.002,0.98-5.173,3.798-5.173,7.127c0,3.885,2.954,7.081,6.74,7.462
		c0.992,8.57,2.101,17.085,3.332,25.541c-2.816,1.08-4.818,3.802-4.818,6.998c0,3.991,3.119,7.245,7.052,7.478
		c0.854,5.233,1.755,10.442,2.702,15.627c-2.675,1.146-4.549,3.801-4.549,6.895c0,4.076,3.254,7.386,7.306,7.49
		c3.482,17.336,7.483,34.393,12.015,51.134c0.885,3.27,3.852,5.541,7.239,5.541L377.009,470c3.388,0,6.354-2.271,7.239-5.541
		c4.532-16.742,8.533-33.799,12.016-51.137c4.052-0.104,7.305-3.414,7.305-7.49c0-3.094-1.874-5.749-4.549-6.895
		c0.946-5.185,1.848-10.394,2.702-15.627c3.933-0.233,7.053-3.486,7.053-7.478c0-3.196-2.002-5.918-4.819-6.998
		c1.231-8.455,2.34-16.97,3.332-25.541c3.786-0.38,6.742-3.576,6.742-7.462c0-3.33-2.172-6.149-5.175-7.128
		c0.509-5.128,0.974-10.276,1.398-15.442c3.682-0.478,6.528-3.618,6.528-7.43C416.781,302.404,414.479,299.52,411.337,298.625z
		 M398.422,235c0,21.385-0.725,42.502-2.118,63.333h-97.542c0.464-20.913,0.713-42.167,0.713-63.333s-0.249-42.419-0.713-63.333
		h97.542C397.697,192.498,398.422,213.615,398.422,235z M194.532,454.999c-1.179-13.582-2.254-27.542-3.209-41.666h87.357
		c-0.956,14.131-2.03,28.091-3.209,41.667L194.532,454.999z M86.14,398.333c-0.922-4.977-1.797-9.978-2.631-15h302.985
		c-0.834,5.022-1.709,10.023-2.631,15H86.14z M188.714,368.333c-0.403-8.246-0.77-16.603-1.099-25h94.774
		c-0.327,8.373-0.696,16.73-1.099,25H188.714z M172.604,343.333c0.326,8.393,0.69,16.751,1.091,25H81.157
		c-1.222-8.276-2.329-16.61-3.317-25H172.604z M296.309,368.333c0.401-8.273,0.766-16.631,1.091-25h94.764
		c-0.988,8.39-2.095,16.724-3.317,25H296.309z M76.206,328.333c-0.5-4.981-0.959-9.982-1.378-15h320.349
		c-0.419,5.018-0.878,10.019-1.378,15H76.206z M71.582,235c0-21.384,0.725-42.501,2.118-63.333h97.537
		c-0.354,15.971-0.585,32.17-0.669,48.293c-0.021,4.142,3.318,7.517,7.461,7.539c4.164,0,7.518-3.332,7.539-7.461
		c0.084-16.151,0.316-32.378,0.673-48.372h97.518c0.468,20.91,0.717,42.165,0.717,63.333s-0.25,42.423-0.717,63.333h-97.518
		c-0.358-15.994-0.589-32.221-0.673-48.372c-0.021-4.129-3.375-7.461-7.499-7.461c-4.183,0.022-7.522,3.397-7.501,7.539
		c0.084,16.123,0.314,32.322,0.669,48.293H73.7C72.307,277.501,71.582,256.384,71.582,235z M275.471,15.001
		c1.179,13.575,2.253,27.535,3.209,41.667h-87.357c0.955-14.124,2.03-28.084,3.209-41.666L275.471,15.001z M383.864,71.667
		c0.922,4.977,1.796,9.978,2.631,15H83.509c0.834-5.022,1.709-10.023,2.631-15H383.864z M281.29,101.667
		c0.404,8.27,0.772,16.627,1.099,25h-94.774c0.328-8.397,0.696-16.754,1.099-25H281.29z M297.4,126.667
		c-0.326-8.369-0.69-16.727-1.091-25h92.538c1.222,8.276,2.329,16.61,3.317,25H297.4z M173.695,101.667
		c-0.4,8.249-0.764,16.607-1.091,25H77.84c0.988-8.39,2.095-16.724,3.317-25H173.695z M393.798,141.667
		c0.5,4.981,0.959,9.982,1.378,15H74.827c0.419-5.018,0.878-10.019,1.378-15H393.798z M293.715,56.667
		c-0.948-14.124-2.017-28.079-3.188-41.667L371.246,15c3.593,13.681,6.816,27.581,9.701,41.667H293.715z M179.477,15.002
		c-1.172,13.594-2.24,27.55-3.188,41.666H89.057c2.885-14.085,6.108-27.985,9.7-41.665L179.477,15.002z M176.289,413.333
		c0.948,14.116,2.017,28.072,3.188,41.666l-80.72-0.001c-3.592-13.68-6.815-27.58-9.7-41.665H176.289z M290.526,454.999
		c1.171-13.588,2.24-27.543,3.189-41.667h87.232c-2.885,14.086-6.108,27.986-9.701,41.667L290.526,454.999z"/>
	<path style="fill:#34150C;" d="M224.75,275.748c4.411,0,8-3.589,8-8s-3.589-8-8-8s-8,3.589-8,8S220.339,275.748,224.75,275.748z"/>
	<path style="fill:#34150C;" d="M104.75,199.748c-4.411,0-8,3.589-8,8s3.589,8,8,8s8-3.589,8-8S109.161,199.748,104.75,199.748z"/>
</g>
<g>
</g>
<g>
</g>
<g>
</g>
<g>
</g>
<g>
</g>
<g>
</g>
<g>
</g>
<g>
</g>
<g>
</g>
<g>
</g>
<g>
</g>
<g>
</g>
<g>
</g>
<g>
</g>
<g>
</g>
</svg>
