<?xml version="1.0" encoding="iso-8859-1"?>
<!-- Generator: Adobe Illustrator 19.0.0, SVG Export Plug-In . SVG Version: 6.00 Build 0)  -->
<svg version="1.1" id="Layer_1" xmlns="http://www.w3.org/2000/svg" xmlns:xlink="http://www.w3.org/1999/xlink" x="0px" y="0px"
	 viewBox="0 0 512 512" style="enable-background:new 0 0 512 512;" xml:space="preserve">
<path style="fill:#1F9E5E;" d="M352.62,192.405v183.538h2.395c28.805,0,52.155-23.337,52.155-52.142V221.874
	c0-19.462-15.776-35.238-35.225-35.238C364.809,186.636,358.163,188.756,352.62,192.405z"/>
<path style="fill:#2AB573;" d="M153.632,137.441c-1.58-0.226-3.198-0.339-4.841-0.339c-19.462,0-35.238,15.776-35.238,35.238
	v101.927c0,24.641,17.092,45.295,40.078,50.75v177.293H352.62V375.943V192.405v-64.971c0-54.939-44.555-99.494-99.494-99.494
	s-99.494,44.555-99.494,99.494L153.632,137.441L153.632,137.441z"/>
<path style="fill:#1F9E5E;" d="M253.126,27.94c-8.438,0-16.628,1.06-24.453,3.038c43.118,10.902,75.041,49.955,75.041,96.455v64.971
	v183.538v126.368h48.907V375.943V192.405v-64.971C352.62,72.495,308.065,27.94,253.126,27.94z"/>
<path d="M425.294,493.19h-63.571V385.218c30.655-3.491,54.55-29.57,54.55-61.137V268.12l12.513-7.312
	c4.484-2.621,5.995-8.382,3.375-12.866c-2.622-4.484-8.383-5.995-12.866-3.375l-3.021,1.766v-24.179
	c0-11.439-4.313-21.99-11.517-29.962l3.22-3.22c3.673-3.673,3.673-9.628-0.001-13.301c-3.672-3.673-9.627-3.672-13.3,0l-5.437,5.437
	c-3.062-1.308-6.309-2.294-9.707-2.901c-5.11-0.917-10.001,2.49-10.912,7.604c-0.914,5.114,2.49,10,7.603,10.912
	c12.308,2.2,21.242,12.894,21.242,25.429v101.927c0,21.178-15.492,38.798-35.74,42.153v-58.896c0-5.194-4.21-9.405-9.405-9.405
	c-5.195,0-9.405,4.211-9.405,9.405v185.851H162.735V352.899c0-5.194-4.211-9.405-9.405-9.405c-5.194,0-9.405,4.211-9.405,9.405
	v26.376l-6.882-2.048c-4.977-1.484-10.215,1.354-11.696,6.333c-1.481,4.978,1.354,10.215,6.333,11.696l12.247,3.643v94.291H86.708
	c-5.194,0-9.405,4.211-9.405,9.405c0,5.194,4.211,9.405,9.405,9.405h338.585c5.195,0,9.405-4.211,9.405-9.405
	C434.698,497.401,430.488,493.19,425.294,493.19z"/>
<path d="M92.356,255.286l11.487,4.053v15.207c0,28.658,19.455,53.291,47.32,59.903c4.652,1.1,9.444,1.657,14.238,1.657h18.321
	c5.194,0,9.405-4.211,9.405-9.405s-4.211-9.405-9.405-9.405h-18.321c-3.341,0-6.676-0.387-9.904-1.15
	c-19.338-4.59-32.845-21.696-32.845-41.6v-21.481c0.003-0.075-0.001-0.149,0-0.223V172.62c0-14.244,11.588-25.833,25.833-25.833
	c1.195,0,2.378,0.082,3.568,0.252c5.608,0.766,10.688,3.293,14.7,7.315c4.014,4.013,6.621,9.314,7.35,14.988
	c0.143,1.058,0.216,2.161,0.216,3.278v69.786c0,5.194,4.211,9.405,9.405,9.405s9.405-4.211,9.405-9.405V172.62
	c0-1.959-0.13-3.91-0.377-5.737c-1.248-9.717-5.757-18.891-12.689-25.823c-4.864-4.876-10.849-8.551-17.326-10.738v-2.608
	c0-49.675,40.415-90.089,90.089-90.089s90.089,40.413,90.089,90.089v146.808c0,5.194,4.21,9.405,9.405,9.405
	c5.195,0,9.405-4.211,9.405-9.405V127.714c0-41.186-22.984-77.101-56.796-95.603l6.09-13.917c2.082-4.759-0.088-10.304-4.847-12.386
	c-4.757-2.082-10.303,0.088-12.386,4.847l-6.077,13.89c-3.435-1.165-6.946-2.159-10.524-2.981l-3.23-14.237
	c-1.15-5.066-6.192-8.24-11.254-7.091c-5.066,1.15-8.24,6.187-7.091,11.254l1.684,7.425c-1.482-0.06-2.971-0.099-4.468-0.099
	c-28.919,0-55.237,11.334-74.757,29.789l-6.339-6.339c-3.673-3.673-9.628-3.673-13.3,0c-3.673,3.673-3.673,9.628,0,13.301
	l7.107,7.107c-13.567,18.162-21.609,40.68-21.609,65.042v0.494c-4.553,0.464-8.906,1.619-12.954,3.352l-2.601-9.312
	c-1.397-5.002-6.585-7.924-11.588-6.528c-5.004,1.397-7.927,6.585-6.53,11.588l2.63,9.415h-12.381c-5.194,0-9.405,4.211-9.405,9.405
	c0,5.194,4.211,9.405,9.405,9.405h6.747c-2.191,5.267-3.406,11.038-3.406,17.087v66.772l-5.225-1.845
	c-4.901-1.728-10.27,0.841-12,5.74C84.888,248.186,87.457,253.558,92.356,255.286z"/>
<path d="M291.587,126.317l7.117-19.656c1.768-4.884-0.757-10.277-5.642-12.045c-4.876-1.766-10.274,0.756-12.044,5.642
	l-7.117,19.656c-1.768,4.884,0.757,10.277,5.642,12.045c1.057,0.382,2.137,0.564,3.2,0.564
	C286.59,132.523,290.201,130.143,291.587,126.317z"/>
<path d="M253.487,149.234c0.834,0,1.68-0.112,2.523-0.346c5.005-1.391,7.935-6.575,6.545-11.58l-6.27-22.572
	c-1.389-5.005-6.575-7.935-11.578-6.545c-5.005,1.391-7.935,6.575-6.545,11.58l6.27,22.572
	C245.587,146.506,249.368,149.234,253.487,149.234z"/>
<path d="M302.595,262.489c-4.975-1.494-10.218,1.331-11.711,6.306l-7.524,25.08c-1.492,4.975,1.331,10.218,6.305,11.711
	c0.902,0.271,1.811,0.399,2.706,0.399c4.045,0,7.782-2.631,9.005-6.705l7.524-25.08
	C310.393,269.225,307.571,263.982,302.595,262.489z"/>
<path d="M270.423,310.375c1.043,0,2.105-0.176,3.145-0.544c4.896-1.737,7.455-7.114,5.72-12.008l-6.897-19.437
	c-1.738-4.896-7.113-7.456-12.009-5.718c-4.896,1.737-7.456,7.114-5.72,12.008l6.897,19.437
	C262.926,307.968,266.553,310.375,270.423,310.375z"/>
<path d="M185.957,386.95c-4.803,1.978-7.094,7.474-5.116,12.278l8.778,21.318c1.495,3.632,5.002,5.826,8.7,5.826
	c1.193,0,2.405-0.228,3.578-0.711c4.803-1.978,7.094-7.474,5.116-12.278l-8.778-21.318
	C196.256,387.262,190.759,384.971,185.957,386.95z"/>
<circle cx="292.551" cy="370.187" r="9.405"/>
<circle cx="249.739" cy="438.28" r="9.405"/>
<circle cx="148.489" cy="232.044" r="9.405"/>
<g>
</g>
<g>
</g>
<g>
</g>
<g>
</g>
<g>
</g>
<g>
</g>
<g>
</g>
<g>
</g>
<g>
</g>
<g>
</g>
<g>
</g>
<g>
</g>
<g>
</g>
<g>
</g>
<g>
</g>
</svg>
