<?xml version="1.0" encoding="iso-8859-1"?>
<!-- Generator: Adobe Illustrator 19.0.0, SVG Export Plug-In . SVG Version: 6.00 Build 0)  -->
<svg version="1.1" id="Capa_1" xmlns="http://www.w3.org/2000/svg" xmlns:xlink="http://www.w3.org/1999/xlink" x="0px" y="0px"
	 viewBox="0 0 512.001 512.001" style="enable-background:new 0 0 512.001 512.001;" xml:space="preserve">
<path style="fill:#009655;" d="M260.563,389.3c0,24.943-20.223,45.166-45.166,45.166h-33.061c-7.848,0-15.526-0.711-22.989-2.066
	C99.479,421.537,53.941,369.021,53.941,306.071v-57.564c0-24.943,20.223-45.166,45.166-45.166s45.166,20.223,45.166,45.166v57.564
	c0,12.364,5.917,23.362,15.074,30.318c6.391,4.855,14.363,7.746,22.989,7.746h33.061C240.34,344.134,260.563,364.357,260.563,389.3z
	"/>
<path style="fill:#006B42;" d="M260.563,389.3c0,24.943-20.223,45.166-45.166,45.166h-33.061c-7.848,0-15.526-0.711-22.989-2.066
	v-96.011c6.391,4.855,14.363,7.746,22.989,7.746h33.061C240.34,344.134,260.563,364.357,260.563,389.3z"/>
<path style="fill:#009655;" d="M458.062,98.58v57.564c0,68.347-53.68,124.386-121.101,128.18c-2.416,0.147-4.855,0.215-7.306,0.215
	h-33.05c-24.954,0-45.166-20.223-45.166-45.166s20.212-45.166,45.166-45.166h33.05c2.495,0,4.946-0.237,7.306-0.711
	c17.513-3.41,30.769-18.857,30.769-37.352V98.58c0-5.047,0.824-9.891,2.349-14.419c6.03-17.874,22.922-30.747,42.817-30.747
	c21.104,0,38.82,14.464,43.777,34.032C457.576,91.003,458.062,94.741,458.062,98.58z"/>
<g>
	<path style="fill:#006B42;" d="M336.961,193.495v90.828c-2.416,0.147-4.855,0.215-7.306,0.215h-33.05
		c-24.954,0-45.166-20.223-45.166-45.166s20.212-45.166,45.166-45.166h33.05C332.151,194.207,334.601,193.97,336.961,193.495z"/>
	<path style="fill:#006B42;" d="M456.673,87.446c-6.967,6.459-16.282,10.411-26.524,10.411c-5.284,0-10.433-1.061-15.198-3.083
		c-4.765,2.021-9.914,3.083-15.198,3.083c-11.867,0-22.515-5.318-29.674-13.697c6.03-17.874,22.922-30.747,42.817-30.747
		C434,53.414,451.716,67.878,456.673,87.446z"/>
</g>
<path style="fill:#009655;" d="M320.024,93.724V495.89c0,4.753-3.853,8.606-8.606,8.606H184.89c-4.753,0-8.606-3.853-8.606-8.606
	V93.724c0-4.833,0.474-9.541,1.378-14.103c6.56-32.937,35.624-57.767,70.492-57.767c19.85,0,37.815,8.051,50.823,21.047
	C311.973,55.909,320.024,73.874,320.024,93.724z"/>
<g>
	<path style="fill:#006B42;" d="M214.246,128.4c-1.321,5.115-3.636,9.846-6.786,13.945c0.768,5.115,0.508,10.366-0.813,15.492
		c-3.817,14.792-15.797,25.767-30.363,28.567v-92.68c0-4.833,0.474-9.541,1.378-14.103c2.868,0.09,5.736,0.497,8.525,1.219
		c10.106,2.597,18.586,8.988,23.881,17.965C215.363,107.793,216.843,118.294,214.246,128.4z"/>
	<path style="fill:#006B42;" d="M320.024,325.583v114.055c-2.868,0.598-5.826,0.903-8.864,0.903c-6.549,0-12.906-1.434-18.71-4.167
		c-5.804,2.733-12.161,4.167-18.71,4.167c-24.356,0-44.161-19.805-44.161-44.15c0-13.753,6.334-26.061,16.226-34.168
		c0.248-25.372,20.957-45.934,46.385-45.934C302.624,316.29,312.267,319.756,320.024,325.583z"/>
</g>
<circle style="fill:#FF9300;" cx="146.08" cy="126.73" r="23.934"/>
<path style="fill:#A4E869;" d="M155.031,113.121c-1.473,5.708-0.559,11.462,2.093,16.239c-4.632,2.898-8.215,7.491-9.688,13.2
	c-3.05,11.822,4.061,23.878,15.883,26.928c11.822,3.05,23.878-4.061,26.928-15.883c1.473-5.708,0.559-11.462-2.093-16.239
	c4.632-2.898,8.215-7.491,9.688-13.199c3.05-11.822-4.061-23.878-15.883-26.928S158.081,101.299,155.031,113.121z"/>
<circle style="fill:#FF9300;" cx="414.74" cy="31.434" r="23.934"/>
<path style="fill:#A4E869;" d="M430.152,36.701c-5.895,0-11.238,2.322-15.201,6.083c-3.963-3.761-9.306-6.083-15.201-6.083
	c-12.209,0-22.106,9.897-22.106,22.107s9.897,22.107,22.106,22.107c5.895,0,11.238-2.322,15.201-6.083
	c3.963,3.761,9.306,6.083,15.201,6.083c12.209,0,22.107-9.897,22.107-22.107S442.361,36.701,430.152,36.701z"/>
<circle style="fill:#FF9300;" cx="292.19" cy="362.69" r="29.466"/>
<path style="fill:#A4E869;" d="M311.165,369.173c-7.258,0-13.835,2.859-18.715,7.49c-4.879-4.631-11.457-7.49-18.715-7.49
	c-15.031,0-27.216,12.185-27.216,27.216s12.185,27.216,27.216,27.216c7.258,0,13.835-2.859,18.715-7.49
	c4.879,4.631,11.457,7.49,18.715,7.49c15.031,0,27.216-12.185,27.216-27.216S326.196,369.173,311.165,369.173z"/>
<path d="M458.06,127.54c4.142,0,7.5-3.357,7.5-7.5V98.58c0-10.12-2.816-19.763-8.171-28.173c1.524-3.564,2.369-7.484,2.369-11.599
	c0-10.464-5.462-19.67-13.679-24.937c0.062-0.81,0.101-1.623,0.101-2.441C446.18,14.1,432.076,0,414.74,0
	c-17.331,0-31.43,14.1-31.43,31.43c0,0.9,0.051,1.795,0.127,2.687c-8.003,5.305-13.294,14.39-13.294,24.69
	c0,2.65,0.355,5.218,1.012,7.665c-7.071,9.174-10.925,20.41-10.925,32.108v57.56c0,16.856-13.713,30.57-30.57,30.57h-2.13v-49.42
	c0-4.143-3.358-7.5-7.5-7.5s-7.5,3.357-7.5,7.5v194.55c-5.839-3.863-12.83-6.12-20.34-6.12c-2.478,0-4.897,0.249-7.24,0.717V40.95
	c16.656,11.649,27.58,30.957,27.58,52.78v12.31c0,4.143,3.358,7.5,7.5,7.5s7.5-3.357,7.5-7.5V93.73
	c0-43.771-35.61-79.381-79.38-79.381c-21.189,0-41.12,8.256-56.123,23.247c-14.117,14.117-22.256,32.62-23.157,52.44
	c-4.707,1.254-9.04,3.652-12.6,6.957c-0.77-0.263-1.547-0.503-2.337-0.706c-16.782-4.326-33.958,5.808-38.283,22.585
	c-2.103,8.131-0.911,16.593,3.355,23.825c4.265,7.231,11.092,12.369,19.21,14.462c0.873,0.227,1.757,0.401,2.646,0.551
	c3.138,9.075,10.613,16.467,20.586,19.04c2.452,0.632,4.911,0.935,7.333,0.94v155.745c-10.115-5.075-17.01-15.629-17.01-27.364
	V248.51c0-29.042-23.627-52.67-52.67-52.67c-29.037,0-52.66,23.628-52.66,52.67v57.561c0,26.926,7.903,52.98,22.854,75.348
	c1.446,2.163,3.822,3.333,6.242,3.333c1.433,0,2.881-0.41,4.161-1.266c3.444-2.302,4.369-6.96,2.067-10.403
	C68.468,353.19,61.44,330.019,61.44,306.07v-57.56c0-18.203,12.975-33.43,30.16-36.918v94.478c0,23.084,8.677,45.081,24.433,61.938
	c14.069,15.052,32.596,24.741,52.747,27.76v30.435c-25.053-2.831-48.818-13.548-67.627-30.634c-3.066-2.784-7.81-2.557-10.594,0.509
	c-2.785,3.066-2.558,7.81,0.508,10.595c21.561,19.586,48.925,31.721,77.713,34.608v54.61c0,8.883,7.227,16.11,16.11,16.11h126.53
	c8.883,0,16.11-7.228,16.11-16.11v-68.893c10.912-5.858,18.352-17.379,18.352-30.607c0-12.653-6.807-23.742-16.949-29.81
	c0.136-1.289,0.228-2.585,0.228-3.889c0-3.778-0.572-7.425-1.63-10.86v-59.79h2.13c74.936,0,135.9-60.965,135.9-135.9v-4.85
	c0-4.143-3.358-7.5-7.5-7.5s-7.5,3.357-7.5,7.5v4.85c0,66.665-54.235,120.9-120.9,120.9h-2.13v-30.17h2.13
	c50.034,0,90.74-40.701,90.74-90.73V86.761c3.102,1.086,6.391,1.653,9.752,1.653c6.343,0,12.221-2.011,17.044-5.42
	c2.211,4.845,3.364,10.117,3.364,15.586v21.46C450.56,124.183,453.918,127.54,458.06,127.54z M414.74,15
	c8.314,0,15.19,6.206,16.274,14.223c-0.287-0.008-0.573-0.022-0.862-0.022c-5.414,0-10.641,1.468-15.201,4.212
	c-4.56-2.744-9.787-4.212-15.201-4.212c-0.428,0-0.852,0.014-1.275,0.032C399.554,21.211,406.427,15,414.74,15z M270.021,33.181
	c-0.042,0.321-0.071,0.647-0.071,0.98v299.024c-8.934,6.755-14.72,17.466-14.72,29.506c0,1.403,0.102,2.797,0.26,4.182
	c-9.877,6.127-16.471,17.065-16.471,29.518c0,17.863,13.563,32.614,30.931,34.507V497h-43.589V34.158
	c0-0.344-0.031-0.68-0.076-1.011c6.921-2.494,14.293-3.798,21.865-3.798C255.826,29.35,263.19,30.705,270.021,33.181z
	 M131.924,135.077c-2.229-3.779-2.852-8.2-1.751-12.455c2.073-8.045,9.793-13.148,17.831-12.2c-0.079,0.275-0.163,0.546-0.235,0.825
	c0,0.001,0,0.001,0,0.001c-1.352,5.242-1.237,10.67,0.28,15.771c-3.795,3.73-6.522,8.425-7.875,13.668
	c-0.107,0.415-0.199,0.83-0.288,1.245C136.562,140.586,133.776,138.217,131.924,135.077z M154.699,144.434
	c0.934-3.621,3.208-6.716,6.403-8.715c3.383-2.116,4.517-6.51,2.58-9.998c-1.83-3.296-2.323-7.105-1.389-10.727v0.001
	c2.012-7.798,9.992-12.508,17.792-10.494c7.799,2.012,12.506,9.993,10.495,17.791c-0.934,3.621-3.208,6.716-6.404,8.716
	c-3.382,2.116-4.515,6.51-2.579,9.997c1.83,3.296,2.323,7.105,1.389,10.726c-2.013,7.798-9.995,12.506-17.792,10.494
	C157.395,160.213,152.687,152.231,154.699,144.434z M106.6,306.07v-94.479c17.19,3.487,30.17,18.714,30.17,36.918v57.561
	c0,20.315,13.128,37.701,32.01,43.513v30.987C133.328,374.135,106.6,342.859,106.6,306.07z M183.78,495.89V173.6
	c6.571-3.847,11.683-10.184,13.73-18.122c1.352-5.242,1.236-10.671-0.281-15.771c3.795-3.729,6.523-8.425,7.875-13.667
	c4.073-15.786-5.44-31.94-21.208-36.045c0.898-15.795,7.464-30.517,18.735-41.788c2.718-2.717,5.646-5.144,8.73-7.301V497H184.89
	C184.268,497,183.78,496.513,183.78,495.89z M312.53,495.89c0,0.612-0.498,1.11-1.11,1.11h-26.47v-67.776
	c2.627-0.9,5.148-2.098,7.5-3.611c5.552,3.574,12.012,5.494,18.715,5.494c0.458,0,0.911-0.017,1.365-0.035V495.89z M311.165,416.106
	c-5.049,0-9.862-1.929-13.552-5.431c-1.447-1.373-3.305-2.06-5.163-2.06s-3.716,0.687-5.163,2.06
	c-3.689,3.502-8.502,5.431-13.552,5.431c-10.872,0-19.716-8.845-19.716-19.717c0-10.871,8.845-19.716,19.716-19.716
	c5.05,0,9.863,1.928,13.552,5.43c2.895,2.746,7.432,2.746,10.326,0c3.689-3.502,8.501-5.43,13.552-5.43
	c10.872,0,19.716,8.845,19.716,19.716C330.881,407.262,322.037,416.106,311.165,416.106z M311.165,361.674
	c-6.703,0-13.163,1.92-18.715,5.493c-5.552-3.573-12.012-5.493-18.715-5.493c-1.176,0-2.338,0.06-3.484,0.175
	c0.444-11.725,10.112-21.129,21.939-21.129c11.819,0,21.483,9.383,21.948,21.09C313.157,361.726,312.167,361.674,311.165,361.674z
	 M329.66,231.87h-2.13v-30.16h2.13c25.127,0,45.57-20.442,45.57-45.57V98.58c0-6.336,1.586-12.479,4.547-17.939
	c5.269,4.824,12.282,7.773,19.972,7.773c1.914,0,3.804-0.193,5.65-0.552v68.277C405.4,197.897,371.423,231.87,329.66,231.87z
	 M430.152,73.414c-3.739,0-7.304-1.429-10.039-4.023c-1.447-1.373-3.305-2.06-5.163-2.06s-3.715,0.687-5.163,2.06
	c-2.734,2.595-6.299,4.023-10.039,4.023c-8.054,0-14.606-6.553-14.606-14.606s6.552-14.606,14.606-14.606
	c3.739,0,7.304,1.429,10.038,4.023c2.894,2.748,7.433,2.748,10.326,0c2.734-2.595,6.299-4.023,10.038-4.023
	c8.054,0,14.606,6.553,14.606,14.606S438.206,73.414,430.152,73.414z"/>
<path d="M240.654,235.77v0.914c0,4.143,3.358,7.5,7.5,7.5s7.5-3.357,7.5-7.5v-0.914c0-4.143-3.358-7.5-7.5-7.5
	S240.654,231.627,240.654,235.77z"/>
<path d="M390.564,125.405c-4.142,0-7.5,3.357-7.5,7.5v0.915c0,4.143,3.358,7.5,7.5,7.5s7.5-3.357,7.5-7.5v-0.915
	C398.064,128.763,394.706,125.405,390.564,125.405z"/>
<path d="M363.542,251.337v0.914c0,4.143,3.358,7.5,7.5,7.5s7.5-3.357,7.5-7.5v-0.914c0-4.143-3.358-7.5-7.5-7.5
	S363.542,247.194,363.542,251.337z"/>
<path d="M291.405,179.075v0.914c0,4.143,3.358,7.5,7.5,7.5s7.5-3.357,7.5-7.5v-0.914c0-4.143-3.358-7.5-7.5-7.5
	S291.405,174.933,291.405,179.075z"/>
<path d="M243.712,60.683c4.142,0,7.5-3.357,7.5-7.5v-0.914c0-4.143-3.358-7.5-7.5-7.5s-7.5,3.357-7.5,7.5v0.914
	C236.212,57.325,239.57,60.683,243.712,60.683z"/>
<path d="M298.905,467.638c-4.142,0-7.5,3.357-7.5,7.5v0.914c0,4.143,3.358,7.5,7.5,7.5s7.5-3.357,7.5-7.5v-0.914
	C306.405,470.995,303.047,467.638,298.905,467.638z"/>
<path d="M195.89,388.433c-4.142,0-7.5,3.357-7.5,7.5v0.914c0,4.143,3.358,7.5,7.5,7.5s7.5-3.357,7.5-7.5v-0.914
	C203.39,391.79,200.032,388.433,195.89,388.433z"/>
<path d="M121,289.734c-4.142,0-7.5,3.357-7.5,7.5v0.914c0,4.143,3.358,7.5,7.5,7.5s7.5-3.357,7.5-7.5v-0.914
	C128.5,293.092,125.142,289.734,121,289.734z"/>
<g>
</g>
<g>
</g>
<g>
</g>
<g>
</g>
<g>
</g>
<g>
</g>
<g>
</g>
<g>
</g>
<g>
</g>
<g>
</g>
<g>
</g>
<g>
</g>
<g>
</g>
<g>
</g>
<g>
</g>
</svg>
